<?xml version="1.0" encoding="utf-8"?>
<svg fill="#ffffffcc" version="1.1" id="Layer_1" xmlns="http://www.w3.org/2000/svg" x="0px" y="0px"
	 viewBox="0 0 24 24" style="enable-background:new 0 0 24 24;" xml:space="preserve">
<style type="text/css">
	.st0{fill-opacity:0;}
</style>
<g>
	<g>
		<rect x="-5.9" y="-5.9" transform="matrix(0.7071 -0.7071 0.7071 0.7071 -4.9706 12)" class="st0" width="35.8" height="35.8"/>
		<path d="M20.4,18.3L14.1,12l6.3-6.3c0.6-0.6,0.6-1.5,0-2.1c-0.6-0.6-1.5-0.6-2.1,0L12,9.9L5.7,3.6C5.1,3,4.1,3,3.6,3.6
			S3,5.1,3.6,5.7L9.9,12l-6.3,6.3c-0.6,0.6-0.6,1.5,0,2.1c0.6,0.6,1.5,0.6,2.1,0l6.3-6.3l6.3,6.3c0.6,0.6,1.5,0.6,2.1,0
			C21,19.9,21,18.9,20.4,18.3z"/>
	</g>
</g>
</svg>
