<?xml version="1.0" encoding="utf-8"?>
<svg version="1.1" id="Layer_1" xmlns="http://www.w3.org/2000/svg" x="0px" y="0px"
	 viewBox="0 0 24 24" style="enable-background:new 0 0 24 24;" xml:space="preserve">
<g>
	<path fill="#ffffff66" d="M19.3,3.2L12,10.1L4.7,3.2c-0.4-0.4-1-0.4-1.4,0c-0.4,0.4-0.4,1,0,1.4l8,7.5c0.4,0.4,1,0.4,1.4,0l8-7.5
		c0.4-0.4,0.4-1,0-1.4C20.4,2.9,19.7,2.9,19.3,3.2L19.3,3.2z"/>
	<path fill="#ffffffcc" d="M5.2,3v1h14c0.6,0,1,0.4,1,1v14c0,0.6-0.4,1-1,1h-14c-0.6,0-1-0.4-1-1V5c0-0.6,0.4-1,1-1V3V2c-1.7,0-3,1.3-3,3v14
		c0,1.7,1.3,3,3,3h14c1.7,0,3-1.3,3-3V5c0-1.7-1.3-3-3-3h-14V3z"/>
</g>
</svg>
