<?xml version="1.0" encoding="utf-8"?>
<svg version="1.1" id="Layer_1" xmlns="http://www.w3.org/2000/svg" x="0px" y="0px"
	 viewBox="0 0 24 24" style="enable-background:new 0 0 24 24;" xml:space="preserve">
<g>
	<path fill="#ffffffcc" d="M19,2H5C3.3,2,2,3.3,2,5v14c0,1.7,1.3,3,3,3h14c1.7,0,3-1.3,3-3V5C22,3.3,20.7,2,19,2z M4,19V5c0-0.5,0.5-1,1-1h14
		c0.5,0,1,0.5,1,1v13.9c-0.9-3.4-4-5.9-7.6-5.9c-4,0-7.3,3-7.8,6.9C4.2,19.7,4,19.4,4,19z M6.6,19.9c0.5-2.7,2.9-4.8,5.7-4.8
		s5.2,2.1,5.7,4.8H6.6z"/>
	<path fill="#ffffff66" d="M12.4,12.1c2,0,3.7-1.6,3.7-3.7s-1.7-3.7-3.7-3.7S8.7,6.4,8.7,8.5S10.3,12.1,12.4,12.1z M12.4,6.5c1.1,0,1.9,0.9,1.9,1.9
		s-0.9,1.9-1.9,1.9s-1.9-0.9-1.9-1.9S11.3,6.5,12.4,6.5z"/>
</g>
</svg>
