<?xml version="1.0" encoding="utf-8"?>
<!-- Generator: Adobe Illustrator 26.1.0, SVG Export Plug-In . SVG Version: 6.00 Build 0)  -->
<svg fill="#ffffffcc" version="1.1" id="Layer_1" xmlns="http://www.w3.org/2000/svg" xmlns:xlink="http://www.w3.org/1999/xlink" x="0px" y="0px"
	 viewBox="0 0 285.5 285.5" style="enable-background:new 0 0 285.5 285.5;" xml:space="preserve">
<path id="XMLID_792_" d="M142.8,129.4c26.2,0,47.6-21.3,47.6-47.6S169,34.2,142.8,34.2S95.2,55.6,95.2,81.8S116.5,129.4,142.8,129.4
	z M142.8,57c13.7,0,24.8,11.1,24.8,24.8s-11.1,24.8-24.8,24.8s-24.8-11.1-24.8-24.8S129.1,57,142.8,57z"/>
<path id="XMLID_795_" d="M142.8,134.5c-65.2,0-118.2,53-118.2,118.2c0,8.5,6.9,15.4,15.4,15.4h205.7c8.5,0,15.4-6.9,15.4-15.4
	C261,187.6,208,134.5,142.8,134.5z M56.7,237.3c7.3-40.9,43.1-72,86-72s78.7,31.1,86,72H56.7z"/>
</svg>
