<?xml version="1.0" encoding="utf-8"?>
<svg version="1.1" id="Capa_1" xmlns="http://www.w3.org/2000/svg" x="0px" y="0px"
	 viewBox="0 0 490.1 490.1" style="enable-background:new 0 0 490.1 490.1;" fill="#ffffffcc" xml:space="preserve">
<g>
	<path d="M245,261.8c71.9,0,131.4-57.3,131.4-130.3S316.9,0.1,245,0.1S113.6,57.3,113.6,130.4S173.1,261.8,245,261.8z M245,40.8
		c50,0,90.7,40.7,90.7,89.7S295,220,245,220s-90.7-40.7-90.7-89.7S195,40.8,245,40.8z"/>
	<path d="M333.6,274.2c-8.3-2.1-16.7,0-21.9,6.3L245,356.6l-66.7-76.1c-5.2-6.3-14.6-8.3-21.9-6.3C61.5,305.5,0,382.6,0,469.1
		C0,480.6,9.4,490,20.9,490h448.3c11.5,0,20.9-9.4,20.9-20.9C490,382.6,428.5,305.5,333.6,274.2z M42.7,449.4
		C51.1,392.1,92.8,343,157.4,318l73,83.4c7.3,9.4,22.9,9.4,30.2,0l73-83.4c63.6,25,106.4,75,114.7,131.3L42.7,449.4L42.7,449.4z"/>
</g>
</svg>
